<svg id="filled_outline" height="512" viewBox="0 0 512 512" width="512" xmlns="http://www.w3.org/2000/svg" data-name="filled outline"><path d="m392 168-40 136h128l-40-136z" fill="#f5714f"/><path d="m392 168h48l8-24 8-8-8-48h-64l-8 48 8 8z" fill="#ef5e3b"/><path d="m136 256v152h-48v-50.286l-19.556 50.286h-44.444l40-128v-24z" fill="#718799"/><path d="m232 152v32l-28.68994 28.68994a38.62742 38.62742 0 0 1 -54.62012 0l-4.64994-4.64994a25.6136 25.6136 0 0 1 -3.32007 5.36987 26.20159 26.20159 0 0 1 -4.71993 4.56013v38.03h-88l-13.51-18.02a52.42081 52.42081 0 0 1 -3.02-58.42993l7.21-12.01a31.99737 31.99737 0 0 1 27.44-15.54007h64.63a31.99538 31.99538 0 0 1 22.62 9.37012l22.63 22.62988 24.89-14.22z" fill="#ffceb6"/><path d="m216 200-12.68994 12.68994a38.62742 38.62742 0 0 1 -54.62012 0l-4.64994-4.64994a25.6136 25.6136 0 0 1 -3.32007 5.36987 26.20159 26.20159 0 0 1 -4.71993 4.56013v38.03h-88l-13.51-18.02a52.42081 52.42081 0 0 1 -3.02-58.42993l7.21-12.01a31.99737 31.99737 0 0 1 27.44-15.54007h64.63a31.99538 31.99538 0 0 1 22.62 9.37012l22.63 22.62988 24.89-14.22z" fill="#548aff"/><path d="m56 152a27.31368 27.31368 0 0 0 8-19.31369v-12.68631a40 40 0 0 1 40-40 40 40 0 0 1 40 40v12.6863a27.31368 27.31368 0 0 0 8 19.3137z" fill="#c47220"/><path d="m136 440 24 24v8h-56v-32z" fill="#e0edff"/><path d="m112 128v36a12 12 0 1 1 -24 0v-36z" fill="#ffceb6"/><path d="m232 168-32 96h128l-32-96z" fill="#ffa100"/><path d="m232 168h64v-24l7.51473-7.51473a28.97051 28.97051 0 0 0 8.48527-20.48527 28.97051 28.97051 0 0 0 -8.48527-20.48526l-7.51473-7.51474h-64l-7.51473 7.51473a28.97051 28.97051 0 0 0 -8.48527 20.48527 28.97051 28.97051 0 0 0 8.48527 20.48526l7.51473 7.51474z" fill="#ffb401"/><path d="m280 88v8l-16 24-16-24v-8z" fill="#e0edff"/><circle cx="264" cy="56" fill="#e0edff" r="16"/><path d="m248 264h32v176h-32z" fill="#bed3f7"/><path d="m328 472h-128l16-32h96z" fill="#e0edff"/><path d="m400 304h32v136h-32z" fill="#bed3f7"/><path d="m480 472h-128l16-32h96z" fill="#e0edff"/><path d="m56 440 24 24v8h-56v-32z" fill="#e0edff"/><g fill="#ffceb6"><path d="m56 440h-32l8-32h36.444z"/><path d="m104 408h32v32h-32z"/><path d="m72 240-24 16 17.0807 22.77426a16 16 0 0 0 17.85965 5.57893l13.05965-4.35319-8-16 5.93551-5.93551a7.04861 7.04861 0 0 0 2.06449-4.98412 7.04862 7.04862 0 0 0 -4.81965-6.68691z"/></g><path d="m400 88h-22.11146a16 16 0 0 0 -14.31083 8.84458l-19.57771 39.15542h32a24 24 0 0 0 24-24z" fill="#ffb0a1"/><path d="m432 88h22.11146a16 16 0 0 1 14.31083 8.84458l19.57771 39.15542h-32a24 24 0 0 1 -24-24z" fill="#ffb0a1"/><path d="m120 120h-24l-8 8v8a16 16 0 0 0 16 16 16 16 0 0 0 16-16z" fill="#ffceb6"/><circle cx="416" cy="56" fill="#e0edff" r="16"/><path d="m328 272a8.00022 8.00022 0 0 0 7.58936-10.53027l-31.58936-94.76758v-19.38867l5.17188-5.17188a36.9706 36.9706 0 0 0 -.00049-52.28418l-7.51465-7.51465a8.00035 8.00035 0 0 0 -5.65674-2.34277h-24v-1.37622a24 24 0 1 0 -16 0v1.37622h-24a8.00035 8.00035 0 0 0 -5.65674 2.34277l-7.51514 7.51563a36.9706 36.9706 0 0 0 .00049 52.28418l5.17139 5.1709v.04345l-46.66406 26.66553-18.28589-18.2854c.11792-.22241.24341-.4397.34106-.67554a8.00061 8.00061 0 0 0 -1.73437-8.71875 19.18424 19.18424 0 0 1 -5.65674-13.65625v-12.68652a48 48 0 0 0 -96 0v12.68652a19.18424 19.18424 0 0 1 -5.65674 13.65625 7.95381 7.95381 0 0 0 -1.12134 1.448 40.07989 40.07989 0 0 0 -17.40356 15.62915l-7.20654 12.01074a60.43138 60.43138 0 0 0 3.47461 67.35059l27.64457 36.85986-39.36674 125.97315a7.97757 7.97757 0 0 0 5.46741 10.07374l-5.5929 22.37158a7.99868 7.99868 0 0 0 -.23877 1.94042v32a8.00008 8.00008 0 0 0 8 8h56a8.00008 8.00008 0 0 0 8-8v-8a8.00076 8.00076 0 0 0 -2.34326-5.65723l-20.3086-20.30859 14.65186-37.67627v7.64209a8.00008 8.00008 0 0 0 8 8h8v56a8.00008 8.00008 0 0 0 8 8h56a8.00008 8.00008 0 0 0 8-8v-8a8.00076 8.00076 0 0 0 -2.34326-5.65723l-21.65674-21.65625v-215.03808c.4231-.40723.83154-.82691 1.23157-1.25391a46.60087 46.60087 0 0 0 60.60144.80811l-13.42237 40.26709a8.00022 8.00022 0 0 0 7.58936 10.53027h40v160h-24a7.99967 7.99967 0 0 0 -7.15527 4.42188l-16 32a8 8 0 0 0 7.15527 11.57812h128a8 8 0 0 0 7.15527-11.57812l-16-32a7.99967 7.99967 0 0 0 -7.15527-4.42188h-24v-160zm-64-224a8 8 0 1 1 -8 8 8.00917 8.00917 0 0 1 8-8zm6.3855 48-6.3855 9.57812-6.3855-9.57812zm-40.24341 5.17188 5.17191-5.17188h4.686a7.99836 7.99836 0 0 0 1.34375 4.4375l16 24a7.99959 7.99959 0 0 0 13.3125 0l16-24a7.99836 7.99836 0 0 0 1.34375-4.4375h4.686l5.17138 5.1709a20.97052 20.97052 0 0 1 .00049 29.65722l-7.51465 7.51465a8.00076 8.00076 0 0 0 -2.34322 5.65723v16h-48v-16a8.00076 8.00076 0 0 0 -2.34326-5.65723l-7.51416-7.51367a20.97052 20.97052 0 0 1 -.00049-29.65722zm-6.14209 65.53027-6.28186 18.84546-6.28914-12.57837 12.571-7.18335zm-152-34.01563v-12.68652a32 32 0 0 1 64 0v12.68652a35.38357 35.38357 0 0 0 1.84229 11.31348h-11.21851a23.88238 23.88238 0 0 0 1.37622-8v-16a8.00008 8.00008 0 0 0 -8-8h-24a8.00035 8.00035 0 0 0 -5.65674 2.34277l-8 8a8.00076 8.00076 0 0 0 -2.34326 5.65723v16h-9.84229a35.38357 35.38357 0 0 0 1.84229-11.31348zm40 3.31348a8 8 0 0 1 -16 0v-4.68652l3.31348-3.31348h12.68652zm-16 22.62378a23.88238 23.88238 0 0 0 8 1.37622v4a4 4 0 0 1 -8 0zm-22.81848 90.20312 14.00842 4.66919-4.84668 4.84668a8.00091 8.00091 0 0 0 -1.49853 9.23535l3.875 7.749-4.30909 1.43652a7.98692 7.98692 0 0 1 -8.93017-2.78906l-12.00672-16.00925zm-22.65393 183.1731h-16.2815l4.00025-16h18.50342zm18.15841 32h-36.686v-16h20.686zm35.858-170.89941-41.57208 106.89941h-28.09057l33.93811-108.602a23.92335 23.92335 0 0 0 16.65075.54541l13.05958-4.35352a8.00041 8.00041 0 0 0 4.62548-11.168l-5.42138-10.8418 1.58011-1.58009h28.686v136h-32v-40h-.30518l23.76123-61.10059zm23.456 122.89941v16h-16v-16zm20.686 48h-36.686v-16h20.686zm27.314-248a30.4237 30.4237 0 0 1 -21.65674-8.9707l-1.08716-1.08716a33.95965 33.95965 0 0 0 -8.79956-32.79956l-2.7998-2.79981-11.31348 11.31446 2.79981 2.79882a17.98137 17.98137 0 0 1 -1.9375 27.1084 8.00092 8.00092 0 0 0 -3.20557 6.4043v30.03125h-24.89062a15.01885 15.01885 0 0 0 -9.39938-9.19629l-16.03666-5.34571-12.44189-24.8828 13.4248-20.1377-13.3125-8.875-16 24a7.999 7.999 0 0 0 -.499 8.01562l12.84155 25.68311-11.827 7.88477-8.973-11.96436a44.4321 44.4321 0 0 1 -2.55469-49.51855l7.20655-12.01075a24.12126 24.12126 0 0 1 20.58-11.65234h13.88184v4a20 20 0 0 0 40 0v-4h10.74512a23.83777 23.83777 0 0 1 16.9707 7.03027l22.62744 22.627a8.00146 8.00146 0 0 0 9.626 1.28906l17.54638-10.02637 8.75025 17.50049-8.60962 8.60986a30.42483 30.42483 0 0 1 -21.65627 8.96969zm61.76611-40h52.46778l26.6665 80h-105.80078zm77.28955 288h-102.11132l8-16h86.11132zm-43.05566-32h-16v-160h16z"/><path d="m495.15527 132.42188-19.57763-39.15528a23.87013 23.87013 0 0 0 -21.46631-13.2666h-30.11133v-1.37622a24 24 0 1 0 -16 0v1.37622h-30.11133a23.87013 23.87013 0 0 0 -21.46631 13.2666l-19.57763 39.15528a8 8 0 0 0 7.15527 11.57812h28.68628l4.32153 4.32129 6.60938 19.82812-39.292 133.59278a8 8 0 0 0 7.67481 10.25781h40v120h-24a7.99967 7.99967 0 0 0 -7.15527 4.42188l-16 32a8 8 0 0 0 7.15527 11.57812h128a8 8 0 0 0 7.15527-11.57812l-16-32a7.99967 7.99967 0 0 0 -7.15527-4.42188h-24v-120h40a8 8 0 0 0 7.6748-10.25781l-39.292-133.59278 6.60938-19.82812 4.32154-4.32129h28.68628a8 8 0 0 0 7.15527-11.57812zm-79.15527-84.42188a8 8 0 1 1 -8 8 8.00917 8.00917 0 0 1 8-8zm-8 64v-16h16v16a32.026 32.026 0 0 0 16.95715 28.2334 7.97376 7.97376 0 0 0 -.54651 1.23633l-6.17675 18.53027h-36.46778l-6.17675-18.53027a7.97376 7.97376 0 0 0 -.54651-1.23633 32.026 32.026 0 0 0 16.95715-28.2334zm-37.26709-11.57715a7.95642 7.95642 0 0 1 7.15576-4.42285h14.11133v16a16.01833 16.01833 0 0 1 -16 16h-19.05566zm96.32275 363.57715h-102.11132l8-16h86.11132zm-43.05566-32h-16v-120h16zm45.30811-136h-106.61622l35.29395-120h36.02832zm-13.30811-168a16.01833 16.01833 0 0 1 -16-16v-16h14.11133a7.95642 7.95642 0 0 1 7.15576 4.42285l13.78857 27.57715z"/></svg>