<svg id="Layer_1" enable-background="new 0 0 510 510" height="512" viewBox="0 0 510 510" width="512" xmlns="http://www.w3.org/2000/svg"><g id="XMLID_519_"><path id="XMLID_2688_" d="m375 315-61.333 10-58.667-10-10-45 10-60h120z" fill="#ff4a4a"/><path id="XMLID_2691_" d="m420 390-80.501 10-84.499-10-10-34 10-41h165z" fill="#bee75e"/><path id="XMLID_2835_" d="m127.5 120v30h30v30l15 10 15-10v-30h30v-30z" fill="#009398"/><path id="XMLID_2681_" d="m255 390-82.5 10-82.5-10v-105l10-15-10-15v-45c0-16.568 13.432-30 30-30h105c16.568 0 30 13.432 30 30v45l-10 15 10 15z" fill="#00b9a0"/><path id="XMLID_2678_" d="m210 315h-30v-30l15-10 15 10z" fill="#009398"/><path id="XMLID_2680_" d="m90 255h165v30h-165z" fill="#ffec29"/><path id="XMLID_2222_" d="m210 0v30h30v30l7.999 10 7.001-10 10-30-10-30z" fill="#ffcb00"/><path id="XMLID_2228_" d="m255 0v60l7.333 10 7.667-10v-30h30v-30z" fill="#ffb454"/><path id="XMLID_2235_" d="m135 60c-57.897 0-105 47.103-105 105v225l15 10 15-10v-225c0-41.355 33.645-75 75-75h120l10-15.667-10-14.333z" fill="#ffec29"/><circle id="XMLID_2260_" cx="420" cy="465" fill="#383d40" r="45"/><circle id="XMLID_2259_" cx="90" cy="465" fill="#595454" r="45"/><path id="XMLID_2249_" d="m255 420h-255v-30h255l10 15z" fill="#ce3b00"/><path id="XMLID_2242_" d="m375 60h-120v30h120c41.355 0 75 33.645 75 75v225l15 10 15-10v-225c0-57.897-47.103-105-105-105z" fill="#ffcb00"/><path id="XMLID_2250_" d="m255 390h255v30h-255z" fill="#be0000"/></g></svg>