<svg width="512.004" height="512.004" xmlns="http://www.w3.org/2000/svg">

 <g>
  <title>background</title>
  <rect fill="none" id="canvas_background" height="402" width="582" y="-1" x="-1"/>
 </g>
 <g>
  <title>Layer 1</title>
  <circle fill="#ffffff" id="svg_2" r="45" cy="105.002" cx="65"/>
  <path fill="#ffffff" id="svg_3" d="m75,150.002l-10,0l-10,0c-30.327,0 -55,24.673 -55,55l0,21c0,8.284 6.716,15 15,15l100,0c8.284,0 15,-6.716 15,-15l0,-21c0,-30.327 -24.673,-55 -55,-55z"/>
  <circle fill="#ffffff" id="svg_4" r="45" cy="316.002" cx="65"/>
  <path fill="#ffffff" id="svg_5" d="m75,361.002l-10,0l-10,0c-30.327,0 -55,24.673 -55,55l0,21c0,8.284 6.716,15 15,15l100,0c8.284,0 15,-6.716 15,-15l0,-21c0,-30.327 -24.673,-55 -55,-55z"/>
  <path fill="#ffffff" id="svg_6" d="m234.453,120.08l-19.904,-5.372l-11.259,-17.27c-5.91,-9.066 -19.218,-9.071 -25.131,0l-11.259,17.27l-19.904,5.372c-10.448,2.819 -14.566,15.474 -7.766,23.901l12.945,16.044l-1.042,20.589c-0.547,10.807 10.214,18.634 20.332,14.771l19.259,-7.354l19.259,7.354c10.088,3.852 20.88,-3.944 20.332,-14.771l-1.042,-20.589l12.945,-16.044c6.796,-8.421 2.69,-21.08 -7.765,-23.901z"/>
  <path fill="#ffffff" id="svg_7" d="m500.908,120.08l-19.904,-5.372l-11.259,-17.27c-5.91,-9.066 -19.218,-9.071 -25.131,0l-11.259,17.27l-19.904,5.372c-10.448,2.819 -14.566,15.474 -7.766,23.901l12.945,16.044l-1.042,20.59c-0.547,10.808 10.214,18.633 20.332,14.771l19.26,-7.354l19.259,7.354c10.11,3.861 20.879,-3.958 20.332,-14.771l-1.042,-20.589l12.945,-16.044c6.795,-8.422 2.689,-21.081 -7.766,-23.902z"/>
  <path fill="#ffffff" id="svg_8" d="m367.681,120.08l-19.904,-5.372l-11.259,-17.27c-5.91,-9.066 -19.218,-9.071 -25.131,0l-11.259,17.27l-19.904,5.372c-10.448,2.819 -14.566,15.474 -7.766,23.901l12.945,16.044l-1.042,20.589c-0.547,10.807 10.214,18.634 20.332,14.771l19.259,-7.354l19.259,7.354c10.11,3.861 20.879,-3.958 20.332,-14.771l-1.042,-20.589l12.945,-16.044c6.796,-8.421 2.689,-21.08 -7.765,-23.901z"/>
  <path fill="#ffffff" id="svg_9" d="m234.453,330.08l-19.904,-5.372l-11.259,-17.27c-5.91,-9.066 -19.218,-9.071 -25.131,0l-11.259,17.27l-19.904,5.372c-10.448,2.819 -14.566,15.474 -7.766,23.901l12.945,16.044l-1.042,20.589c-0.547,10.806 10.214,18.635 20.332,14.771l19.259,-7.354l19.259,7.354c10.069,3.845 20.881,-3.914 20.332,-14.771l-1.042,-20.589l12.945,-16.044c6.796,-8.421 2.69,-21.08 -7.765,-23.901z"/>
  <path fill="#ffffff" id="svg_10" d="m367.681,330.08l-19.904,-5.372l-11.259,-17.27c-5.91,-9.066 -19.218,-9.071 -25.131,0l-11.259,17.27l-19.904,5.372c-10.448,2.819 -14.566,15.474 -7.766,23.901l12.945,16.044l-1.042,20.589c-0.547,10.806 10.214,18.635 20.332,14.771l19.259,-7.354l19.259,7.354c10.088,3.852 20.88,-3.944 20.332,-14.771l-1.042,-20.589l12.945,-16.044c6.796,-8.421 2.689,-21.08 -7.765,-23.901z"/>
 </g>
</svg>