<svg height="512" viewBox="0 0 512 512" width="512" xmlns="http://www.w3.org/2000/svg"><path d="m376 152h-16v-48a8.009 8.009 0 0 0 -8-8h-192a8.009 8.009 0 0 0 -8 8v48h-16v-48a24.027 24.027 0 0 1 24-24h192a24.027 24.027 0 0 1 24 24z" fill="#fabe19"/><path d="m184 328h-40v24h-88v-136a64 64 0 0 1 64-64h32a64 64 0 0 1 64 64v80a32 32 0 0 1 -32 32z" fill="#fab991"/><path d="m80 328h64a0 0 0 0 1 0 0v24a0 0 0 0 1 0 0h-88a0 0 0 0 1 0 0 24 24 0 0 1 24-24z" fill="#f0915a"/><circle cx="168" cy="240" fill="#353744" r="8"/><circle cx="200" cy="240" fill="#353744" r="8"/><path d="m184 250.667a16 16 0 0 1 16 16v5.333a8 8 0 0 1 -8 8 8 8 0 0 1 -8-8v-21.333a0 0 0 0 1 0 0z" fill="#f0915a"/><rect fill="#353744" height="8" rx="4" width="24" x="176" y="296"/><path d="m40 216v80a16 16 0 0 0 16 16h40a16 16 0 0 0 16-16v-32a16 16 0 0 0 16-16v-32a16 16 0 0 0 -16-16h-56a16 16 0 0 0 -16 16z" fill="#d7e6f0"/><path d="m112 240a24 24 0 0 0 0 48z" fill="#f0915a"/><path d="m48 352h136a32 32 0 0 1 32 32v88a0 0 0 0 1 0 0h-200a0 0 0 0 1 0 0v-88a32 32 0 0 1 32-32z" fill="#d7322d"/><path d="m144 352h-48a32 32 0 0 1 32 32v16a24 24 0 0 0 24 24 24 24 0 0 0 24-24v-16a32 32 0 0 0 -32-32z" fill="#d7e6f0"/><path d="m48 352a32 32 0 0 1 32 32v88a0 0 0 0 1 0 0h-64a0 0 0 0 1 0 0v-88a32 32 0 0 1 32-32z" fill="#f04b37"/><path d="m328 328h40v24h88v-136a64 64 0 0 0 -64-64h-32a64 64 0 0 0 -64 64v80a32 32 0 0 0 32 32z" fill="#f0915a"/><path d="m360 152h8a0 0 0 0 1 0 0v160a16 16 0 0 1 -16 16h-24a32 32 0 0 1 -32-32v-80a64 64 0 0 1 64-64z" fill="#fab991"/><path d="m464 216a64 64 0 0 0 -64-64h-64a48 48 0 0 0 -48 48v8a8 8 0 0 0 8 8h24a8 8 0 0 1 8 8 8 8 0 0 0 8 8 8 8 0 0 1 8 8v104a8 8 0 0 0 8 8h104a8 8 0 0 0 8-8z" fill="#353744"/><path d="m328 352h136a32 32 0 0 1 32 32v88a0 0 0 0 1 0 0h-200a0 0 0 0 1 0 0v-88a32 32 0 0 1 32-32z" fill="#4b55a5"/><path d="m328 352a32 32 0 0 1 32 32v88a0 0 0 0 1 0 0h-64a0 0 0 0 1 0 0v-88a32 32 0 0 1 32-32z" fill="#6478b9"/><path d="m304 88a48 48 0 1 0 -81.321 34.534 29.88 29.88 0 0 1 9.321 21.466h48v-.006a29.3 29.3 0 0 1 9.083-21.232 47.831 47.831 0 0 0 14.917-34.762z" fill="#f5871e"/><path d="m232 144h48a0 0 0 0 1 0 0 24 24 0 0 1 -24 24 24 24 0 0 1 -24-24 0 0 0 0 1 0 0z" fill="#a5c3dc"/><circle cx="240" cy="72" fill="#fabe19" r="16"/><path d="m232 144h24a0 0 0 0 1 0 0v24a0 0 0 0 1 0 0 24 24 0 0 1 -24-24 0 0 0 0 1 0 0z" fill="#d7e6f0"/></svg>