<svg width="60" height="60" xmlns="http://www.w3.org/2000/svg">
 <!-- Generator: Sketch 51.3 (57544) - http://www.bohemiancoding.com/sketch -->
 <title>035 - Creative Thinking</title>
 <desc>Created with Sketch.</desc>

 <g>
  <title>background</title>
  <rect fill="none" id="canvas_background" height="402" width="582" y="-1" x="-1"/>
 </g>
 <g>
  <title>Layer 1</title>
  <path fill="#00005f" id="Shape" d="m51.768,44c0.317603,-1.685948 0.309456,-3.417116 -0.024,-5.1l4.58,-11.053c0.000475,-0.007326 0.000475,-0.014674 0,-0.022c0.742176,-2.031945 1.82984,-3.920386 3.215,-5.582c0.344648,-0.364036 0.483291,-0.8769 0.369,-1.365l-1.878,-8.11c-0.022347,-0.084781 -0.055981,-0.166175 -0.1,-0.242c-0.008,-0.015 -0.011,-0.033 -0.019,-0.047c-0.008,-0.014 -0.043,-0.048 -0.063,-0.074c-0.040925,-0.059914 -0.088198,-0.115235 -0.141,-0.165c-0.03478,-0.024469 -0.071199,-0.046521 -0.109,-0.066c-0.048763,-0.035889 -0.100636,-0.067348 -0.155,-0.094c-0.075384,-0.028471 -0.153967,-0.047614 -0.234,-0.057c-0.023,0 -0.043,-0.015 -0.066,-0.017c-0.191668,-0.012773 -0.382959,0.029929 -0.551,0.123c-0.015,0.008 -0.033,0.011 -0.048,0.02l-0.01,0l-7.061,4.407c-0.427608,0.264795 -0.693027,0.727211 -0.706,1.23c-0.196153,2.159157 -0.764897,4.268008 -1.681,6.233l0,0.011l-2.289,5.533c-1.123462,-0.597229 -2.32618,-1.031581 -3.572,-1.29c0.47158,-3.25507 0.644966,-6.546399 0.518,-9.833c1.861505,-2.233451 2.754893,-5.117344 2.482,-8.012c-0.625,-5.828 -5.892,-10.037 -6.117,-10.214c-0.338172,-0.266308 -0.808814,-0.286336 -1.168388,-0.04972c-0.359574,0.236615 -0.527391,0.676777 -0.416612,1.09272c0.515,1.934 0.069,3.975 -3.735,8.172c-1.70911,1.650288 -2.250849,4.170108 -1.371,6.377c0.336401,0.844098 0.818383,1.622582 1.424,2.3c-0.242,1.545 -0.432,3.008 -0.563,4.433c-0.225568,2.356915 -0.283714,4.726859 -0.174,7.092c-0.892104,0.483667 -1.727298,1.06562 -2.49,1.735l-4.85,-20.74c0,-0.021 -0.02,-0.036 -0.026,-0.055c-0.016278,-0.066678 -0.039749,-0.13139 -0.07,-0.193l-4.954,-9.149c-0.495783,-0.915727 -1.543158,-1.386291 -2.557045,-1.14883c-1.013887,0.237462 -1.743373,1.124184 -1.780955,2.16483l-0.376,10.395c0.000243,0.075019 0.008625,0.14979 0.025,0.223c0,0.016 0,0.03 0,0.045l4.948,21.117c-0.78055,0.034461 -1.555393,0.150085 -2.312,0.345l-5.443,-13.145c-0.436455,-1.004849 -1.594061,-1.478979 -2.61,-1.069l-8.319,3.444c-1.018133,0.424985 -1.501979,1.592381 -1.083,2.613l7.382,17.808c-4.326494,0.227155 -7.684827,3.859063 -7.573157,8.190077c0.11167,4.331013 3.652706,7.785029 7.985157,7.788923l44,0c2.858125,-0.041443 5.477032,-1.604529 6.870203,-4.100459c1.393172,-2.49593 1.348953,-5.545513 -0.116,-8c-1.464953,-2.454487 -4.128078,-3.940984 -6.986203,-3.899541zm-1.019,-25.884l4.192,-2.616l-1.484,3.584c-0.211525,0.510311 0.030689,1.095475 0.541,1.307c0.510311,0.211525 1.095475,-0.030689 1.307,-0.541l1.484,-3.584l1.111,4.813c-1.188675,1.450147 -2.165114,3.061945 -2.9,4.787c-1.042586,0.483283 -2.239812,0.508361 -3.301721,0.06916c-1.061909,-0.439202 -1.891654,-1.302625 -2.288279,-2.38116c0.702325,-1.739877 1.153189,-3.570941 1.339,-5.438zm-2.3,7.851c0.66156,0.808824 1.520074,1.433854 2.493,1.815c0.773358,0.332632 1.605179,0.508038 2.447,0.516c0.202541,-0.000744 0.404873,-0.013097 0.606,-0.037l-3.191,7.7c-0.955503,-2.106689 -2.433616,-3.934192 -4.294,-5.309l1.939,-4.685zm-13.7,-7.142l5.024,0.307c0.031,0.934 0.02,1.9 -0.011,2.881c-1.673673,0.119586 -3.355645,0.038341 -5.01,-0.242c-0.126,-0.018 -0.249,-0.032 -0.374,-0.049c0.1,-0.942 0.222,-1.896 0.369,-2.897l0.002,0zm-0.477,-8.053c2.655,-2.929 4.031,-5.182 4.351,-7.3c1.908416,1.963546 3.168147,4.465554 3.609,7.168c0.21002,2.352593 -0.51739,4.692955 -2.024,6.512c-1.975333,-0.12 -3.929,-0.24 -5.861,-0.36c-0.830152,-0.776068 -1.307707,-1.85726 -1.322241,-2.99358c-0.014534,-1.13632 0.43521,-2.229373 1.245241,-3.02642l0.002,0zm-0.076,12.943l0.29,0.038c1.288564,0.199281 2.589288,0.309875 3.893,0.331c0.414,0 0.85,-0.033 1.287,-0.067c-0.091,1.287 -0.24,2.631 -0.429,4.02c-0.247,-0.013 -0.489,-0.037 -0.737,-0.037c-1.509779,0.002707 -3.008233,0.260677 -4.432,0.763c-0.046113,-1.683713 -0.004055,-3.368685 0.126,-5.048l0.002,0zm-7.735,11.694l-2.861,-12.187c-0.133752,-0.528724 -0.666486,-0.852772 -1.197497,-0.728407c-0.53101,0.124367 -0.864444,0.651277 -0.749503,1.184407l2.571,10.969c-0.706875,-0.252801 -1.437133,-0.434696 -2.18,-0.543l-4.389,-18.73c0.614842,0.279939 1.28243,0.425185 1.958,0.426c0.063,0 0.13,-0.009 0.194,-0.012l0.707,3.019c0.076185,0.353369 0.337149,0.638112 0.682551,0.744747c0.345402,0.106635 0.721465,0.018558 0.983593,-0.230364c0.262128,-0.248922 0.36951,-0.619935 0.280856,-0.970383l-0.708,-3.021c0.678479,-0.300361 1.276893,-0.755936 1.747,-1.33l4.462,19.079c-0.579439,0.722759 -1.082456,1.503592 -1.501,2.33zm-6.11,-21.7c-1.278919,0.248035 -2.584712,-0.27483 -3.339,-1.337l0.127,-3.522c0.347944,0.064987 0.701042,0.098456 1.055,0.1c0.34188,0.001434 0.68279,-0.036482 1.016,-0.113c0.674604,-0.177166 1.305638,-0.490981 1.854,-0.922l1.684,3.108c-0.200648,1.28952 -1.138788,2.341553 -2.397,2.688l0,-0.002zm-2.739,-11.682c0.13622,-0.03155 0.276796,0.031382 0.344,0.154l2.144,3.965c-0.386764,0.349893 -0.848593,0.606464 -1.35,0.75c-0.512475,0.094064 -1.039712,0.069088 -1.541,-0.073l0.163,-4.506c0.005435,-0.139733 0.103748,-0.258529 0.24,-0.29zm-7.237,19.973l0.764,1.846l-3.7,1.532c-0.43864,0.184202 -0.686779,0.651932 -0.593338,1.118413c0.093442,0.46648 0.502592,0.802548 0.978338,0.803587c0.131385,-0.000281 0.261463,-0.026093 0.383,-0.076l3.7,-1.533l0.765,1.848l-1.851,0.767c-0.441152,0.182567 -0.691716,0.651522 -0.59827,1.119725c0.093446,0.468203 0.504834,0.805044 0.98227,0.804275c0.131043,-0.000461 0.26076,-0.026269 0.382,-0.076l1.851,-0.767l0.765,1.848l-3.703,1.535c-0.441152,0.182567 -0.691716,0.651523 -0.59827,1.119725c0.093446,0.468203 0.504834,0.805044 0.98227,0.804275c0.131053,-0.00036 0.260789,-0.026171 0.382,-0.076l3.7,-1.532l0.809,1.953c-3.258606,1.48737 -5.648111,4.395739 -6.475,7.881l-7.248,-17.476l8.323,-3.444zm41.625,36l-44,0c-3.313708,0 -6,-2.686292 -6,-6c0,-3.313708 2.686292,-6 6,-6c0.579426,-0.001929 1.155967,0.081638 1.711,0.248c0.299843,0.090574 0.624801,0.035424 0.877972,-0.149004c0.253171,-0.184428 0.405303,-0.476824 0.411028,-0.789996c0.071135,-3.563925 2.131391,-6.788106 5.335641,-8.349966c3.204249,-1.561861 7.013183,-1.198525 9.864359,0.940966c0.25195,0.187527 0.577366,0.245789 0.878729,0.157326c0.301363,-0.088462 0.543656,-0.313371 0.654271,-0.607326c1.953705,-5.206818 7.353382,-8.269551 12.824902,-7.274372c5.471521,0.99518 9.446933,5.763087 9.442098,11.324372c0.001948,1.143637 -0.168293,2.281051 -0.505,3.374c-0.105101,0.340044 -0.021543,0.710324 0.219405,0.972278c0.240949,0.261954 0.60297,0.3761 0.950595,0.299722c0.43846,-0.096504 0.886046,-0.145454 1.335,-0.146c3.313708,0 6,2.686292 6,6c0,3.313708 -2.686292,6 -6,6z"/>
  <path fill="#00005f" id="Shape" d="m38.685,15.7c0.31388,0.001183 0.610103,-0.145077 0.8,-0.395c1.248449,-1.689754 1.730919,-3.825681 1.33,-5.888c-0.085291,-0.352627 -0.354876,-0.631401 -0.704448,-0.728458c-0.349571,-0.097057 -0.72429,0.00283 -0.979169,0.26101c-0.254878,0.258181 -0.349932,0.634155 -0.248383,0.982448c0.239414,1.465437 -0.117832,2.965727 -0.992,4.166c-0.227263,0.303018 -0.263819,0.70843 -0.094427,1.047214c0.169392,0.338784 0.515655,0.552786 0.894427,0.552786l-0.006,0.002z"/>
  <path fill="#00005f" id="Shape" d="m37.37,46c-0.743614,0.00229 -1.477019,0.173247 -2.145,0.5c-1.798919,-2.461566 -5.157883,-3.182671 -7.808629,-1.676362c-2.650745,1.506308 -3.750395,4.761059 -2.556371,7.566362c0.157113,0.368721 0.519201,0.608014 0.92,0.608c0.134752,0.000317 0.268148,-0.026906 0.392,-0.08c0.244005,-0.103958 0.436716,-0.300593 0.535736,-0.546643c0.099021,-0.24605 0.096238,-0.521359 -0.007736,-0.765357c-0.217697,-0.507439 -0.32997,-1.053835 -0.33,-1.606c0,-2.209139 1.790861,-4 4,-4c1.551523,-0.00772 2.964625,0.891349 3.615,2.3c0.021632,0.032565 0.044999,0.063943 0.07,0.094c0.015795,0.034292 0.033489,0.067677 0.053,0.1c0.018,0.022 0.044,0.032 0.064,0.053c0.046913,0.048704 0.098872,0.092283 0.155,0.13c0.049953,0.038459 0.103541,0.071951 0.16,0.1c0.058082,0.02435 0.118355,0.043101 0.18,0.056c0.061495,0.016144 0.124499,0.025863 0.188,0.029c0.129913,-0.001042 0.258842,-0.022643 0.382,-0.064c0.026655,-0.004911 0.053027,-0.011253 0.079,-0.019c0.032449,-0.02098 0.063513,-0.044027 0.093,-0.069c0.035994,-0.015997 0.071051,-0.034026 0.105,-0.054c0.525269,-0.424794 1.180458,-0.656369 1.856,-0.656c1.169253,0.001903 2.230864,0.682973 2.72,1.745c0.229198,0.502579 0.822421,0.724198 1.325,0.495c0.502579,-0.229198 0.724198,-0.822421 0.495,-1.325c-0.814281,-1.774835 -2.587286,-2.91323 -4.54,-2.915z"/>
  <path fill="#00005f" id="Shape" d="m17.684,39.051c-0.151,0.049 -3.684,1.271 -3.684,4.949c0,0.552285 0.447715,1 1,1c0.552285,0 1,-0.447715 1,-1c0.08163,-1.394987 0.999479,-2.601789 2.322,-3.053c0.524671,-0.176179 0.807179,-0.74433 0.631,-1.269c-0.176179,-0.524671 -0.744329,-0.807179 -1.269,-0.631l0,0.004z"/>
  <path fill="#00005f" id="Shape" d="m31.757,37.97c0.07942,0.020161 0.161062,0.03024 0.243,0.03c0.458306,-0.00047 0.857632,-0.31243 0.969,-0.757c0.460269,-1.867338 2.113358,-3.195625 4.036,-3.243c0.552285,-0.001381 0.998881,-0.450215 0.9975,-1.0025c-0.001381,-0.552285 -0.450215,-0.998881 -1.0025,-0.9975c-2.842301,0.037743 -5.298516,1.994898 -5.97,4.757c-0.13419,0.535714 0.191293,1.078783 0.727,1.213z"/>
 </g>
</svg>