<svg width="426.667" height="426.667" xmlns="http://www.w3.org/2000/svg">

 <g>
  <title>background</title>
  <rect fill="none" id="canvas_background" height="402" width="582" y="-1" x="-1"/>
 </g>
 <g>
  <title>Layer 1</title>
  <path fill="#ffffff" id="svg_4" d="m213.333,106.667c-58.88,0 -106.667,47.787 -106.667,106.667s47.787,106.666 106.667,106.666s106.667,-47.787 106.667,-106.667s-47.787,-106.666 -106.667,-106.666z"/>
  <path fill="#ffffff" id="svg_5" d="m213.333,0c-117.866,0 -213.333,95.467 -213.333,213.333s95.467,213.333 213.333,213.333s213.334,-95.466 213.334,-213.333s-95.467,-213.333 -213.334,-213.333zm0,384c-94.293,0 -170.667,-76.373 -170.667,-170.667s76.374,-170.666 170.667,-170.666s170.667,76.373 170.667,170.666s-76.373,170.667 -170.667,170.667z"/>
 </g>
</svg>