<svg width="475.085" height="475.085" xmlns="http://www.w3.org/2000/svg">
 <g>
  <title>background</title>
  <rect x="-1" y="-1" width="477.085" height="477.085" id="canvas_background" fill="none"/>
 </g>

 <g>
  <title>Layer 1</title>
  <path d="m379.577,247.395c-14.944,-18.75 -31.833,-28.12 -50.679,-28.12l0,-146.183c9.896,0 18.47,-3.616 25.693,-10.848c7.238,-7.233 10.858,-15.802 10.858,-25.697c0,-9.9 -3.62,-18.464 -10.858,-25.697c-7.223,-7.233 -15.796,-10.85 -25.693,-10.85l-182.719,0c-9.9,0 -18.464,3.617 -25.697,10.85c-7.234,7.233 -10.85,15.796 -10.85,25.697c0,9.899 3.616,18.464 10.85,25.697c7.233,7.232 15.8,10.848 25.697,10.848l0,146.179c-18.844,0 -35.734,9.374 -50.677,28.123c-14.941,18.75 -22.414,39.824 -22.414,63.242c0,4.948 1.809,9.232 5.426,12.847c3.619,3.613 7.901,5.421 12.85,5.421l115.344,0l21.698,138.474c0.95,5.141 3.996,7.707 9.135,7.707l0.291,0c2.274,0 4.235,-0.808 5.851,-2.423c1.615,-1.619 2.614,-3.572 2.994,-5.855l14.558,-137.902l122.482,0c4.948,0 9.236,-1.808 12.847,-5.421c3.621,-3.614 5.432,-7.898 5.432,-12.847c0.003,-23.415 -7.477,-44.492 -22.419,-63.242zm-169.445,-37.255c0,2.662 -0.855,4.849 -2.57,6.565c-1.713,1.714 -3.903,2.57 -6.567,2.57c-2.662,0 -4.853,-0.855 -6.567,-2.57c-1.713,-1.713 -2.568,-3.903 -2.568,-6.565l0,-127.907c0,-2.664 0.855,-4.858 2.568,-6.567c1.714,-1.711 3.905,-2.568 6.567,-2.568c2.664,0 4.854,0.854 6.567,2.568c1.714,1.712 2.57,3.903 2.57,6.567l0,127.907z" id="svg_2" fill="#ffffff"/>
 </g>
</svg>