<svg width="48.605" height="48.605" xmlns="http://www.w3.org/2000/svg">

 <g>
  <title>background</title>
  <rect fill="none" id="canvas_background" height="402" width="582" y="-1" x="-1"/>
 </g>
 <g>
  <title>Layer 1</title>
  <path fill="#ffffff" id="svg_2" d="m34.094,8.688l4.756,0l0,-8.683l-8.643,0c-0.721,-0.03 -9.51,-0.198 -11.788,8.489c-0.033,0.091 -0.761,2.157 -0.761,6.983l-7.903,0.024l0,9.107l7.913,-0.023l0,24.021l12.087,0l0,-24l8,0l0,-9.131l-8,0l0,-2.873c0,-1.786 0.753,-3.914 4.339,-3.914zm1.661,8.786l0,5.131l-8,0l0,24l-8.087,0l0,-24.026l-7.913,0.023l0,-5.107l7.934,-0.023l-0.021,-1.017c-0.104,-5.112 0.625,-7.262 0.658,-7.365c1.966,-7.482 9.473,-7.106 9.795,-7.086l6.729,0.002l0,4.683l-2.756,0c-4.673,0 -6.338,3.054 -6.338,5.912l0,4.873l7.999,0l0,0z"/>
 </g>
</svg>