<svg width="511.999" height="511.999" xmlns="http://www.w3.org/2000/svg">

 <g>
  <title>background</title>
  <rect fill="none" id="canvas_background" height="402" width="582" y="-1" x="-1"/>
 </g>
 <g>
  <title>Layer 1</title>
  <path fill="#00005f" id="svg_3" d="m117.776,174.345c-3.9,-3.9 -10.24,-3.9 -14.139,0c-3.91,3.91 -3.91,10.24 0,14.14c3.9,3.91 10.24,3.91 14.139,0c3.909,-3.9 3.909,-10.23 0,-14.14z"/>
  <path fill="#00005f" id="svg_6" d="m253.199,447.718c4.409,-5.972 6.792,-13.167 6.792,-20.732c0,-19.298 -15.7,-34.999 -34.999,-34.999l-169.994,0c-9.353,0 -18.142,3.64 -24.749,10.249c-6.61,6.608 -10.25,15.397 -10.25,24.75c0,7.749 2.536,14.915 6.815,20.72c-15.923,8.372 -26.814,25.072 -26.814,44.277l0,10c0,5.523 4.478,10 10,10l259.99,0c5.522,0 10,-4.477 10,-10l0,-10c0,-19.196 -10.88,-35.889 -26.791,-44.265zm-208.809,-31.342c2.831,-2.832 6.599,-4.391 10.608,-4.391l169.994,0c8.271,0 14.999,6.729 14.999,14.999c0,4.01 -1.56,7.777 -4.392,10.609c-2.831,2.832 -6.599,4.391 -10.608,4.391l-169.993,0c-8.271,0 -14.999,-6.729 -14.999,-14.999c0,-4.009 1.559,-7.777 4.391,-10.609zm-24.391,75.607c0,-16.541 13.458,-29.999 29.999,-29.999l5,0l169.994,0l5,0c16.541,0 29.999,13.458 29.999,29.999l-239.992,0z"/>
  <path fill="#00005f" id="svg_9" d="m502.693,420.124c-3.396,-5.263 -7.448,-9.917 -12.045,-13.833l-46.725,-40.753c-0.364,-0.548 -0.786,-1.068 -1.269,-1.551c-0.812,-0.811 -1.732,-1.444 -2.71,-1.918l-28.257,-24.645l-130.79,-114.091c5.354,-5.597 8.302,-12.916 8.302,-20.699c0,-8.018 -3.121,-15.553 -8.794,-21.225c-2.474,-2.471 -5.286,-4.414 -8.291,-5.837l12.1,-12.1c3.382,0.899 6.857,1.359 10.335,1.359c10.241,-0.001 20.483,-3.899 28.279,-11.695c7.558,-7.557 11.72,-17.602 11.72,-28.285s-4.162,-20.728 -11.719,-28.285l-84.848,-84.846c-7.557,-7.557 -17.603,-11.719 -28.289,-11.719c-10.681,0 -20.724,4.162 -28.28,11.719c-10.444,10.444 -13.882,25.273 -10.336,38.615l-120.725,120.724c-3.336,-0.887 -6.807,-1.355 -10.353,-1.355c-10.688,0 -20.729,4.159 -28.28,11.709c-15.596,15.596 -15.596,40.973 0,56.57l84.847,84.848c7.799,7.798 18.042,11.697 28.285,11.697c10.244,0 20.487,-3.899 28.286,-11.697c10.444,-10.445 13.882,-25.273 10.336,-38.615l12.075,-12.076c1.451,3.03 3.42,5.826 5.866,8.271c5.666,5.666 13.199,8.787 21.215,8.787c7.775,0 15.091,-2.943 20.696,-8.291l139.306,160.054c0.384,0.6 0.832,1.171 1.356,1.695c0.179,0.179 0.369,0.342 0.558,0.504l41.511,47.694c1.032,1.218 2.135,2.416 3.28,3.561c11.401,11.397 26.46,17.582 42.27,17.582c2.787,0 5.6,-0.192 8.417,-0.582c18.829,-2.606 35.102,-13.87 44.644,-30.908c10.453,-18.673 9.675,-42.38 -1.973,-60.383zm-307.138,-394.262c3.779,-3.779 8.801,-5.861 14.138,-5.861c5.344,0 10.369,2.082 14.147,5.861l84.848,84.847c3.779,3.779 5.86,8.802 5.86,14.143c0,5.341 -2.081,10.364 -5.861,14.143c-7.795,7.797 -20.481,7.797 -28.276,0l-84.851,-84.851c-0.002,-0.002 -0.003,-0.003 -0.005,-0.005c-7.797,-7.796 -7.797,-20.481 0,-28.277zm-56.561,282.827c-7.798,7.798 -20.489,7.799 -28.287,0l-84.847,-84.847c-7.799,-7.799 -7.799,-20.487 0,-28.287c3.772,-3.773 8.794,-5.851 14.138,-5.851c5.343,0 10.362,2.077 14.133,5.847l84.862,84.862c7.798,7.795 7.798,20.481 0.001,28.276zm42.102,-70.38l-27.961,27.962l-84.856,-84.856l113.133,-113.135l84.855,84.856l-28.012,28.013c-0.091,0.086 -0.18,0.17 -0.276,0.265l-56.538,56.539c-0.117,0.115 -0.23,0.235 -0.345,0.356zm35.706,20.861c-0.02,0.02 -0.039,0.039 -0.059,0.059l-7.042,7.042c-1.889,1.888 -4.4,2.928 -7.074,2.928c-2.673,0 -5.185,-1.04 -7.073,-2.929c-1.891,-1.89 -2.932,-4.404 -2.932,-7.079c0,-2.618 0.999,-5.081 2.812,-6.939l56.801,-56.801c3.893,-3.786 10.187,-3.739 14.034,0.104c1.89,1.89 2.931,4.404 2.931,7.079c0,2.673 -1.038,5.18 -2.932,7.069l-7.001,7.001c-0.048,0.047 -0.096,0.095 -0.143,0.143l-42.322,42.323zm20.708,7.575l29.226,-29.226l123.742,107.935l-45.154,45.155l-107.814,-123.864zm120.975,138.986l47.099,-47.1l15.107,13.177l-49.045,49.046l-13.161,-15.123zm128.732,65.006c-6.454,11.523 -17.365,19.128 -29.936,20.868c-12.542,1.736 -24.865,-2.395 -33.807,-11.333c-0.769,-0.768 -1.505,-1.569 -2.191,-2.381c-0.032,-0.038 -0.064,-0.076 -0.097,-0.113l-36.38,-41.802l50.991,-50.992l41.75,36.417c0.031,0.028 0.063,0.055 0.096,0.083c3.125,2.657 5.898,5.848 8.251,9.494c7.562,11.685 8.092,27.665 1.323,39.759z"/>
  <path fill="#00005f" id="svg_12" d="m188.484,103.636c-3.906,-3.905 -10.236,-3.905 -14.142,0l-42.428,42.428c-3.905,3.905 -3.905,10.237 0,14.141c1.953,1.953 4.512,2.929 7.071,2.929c2.559,0 5.118,-0.977 7.071,-2.929l42.428,-42.428c3.905,-3.904 3.905,-10.235 0,-14.141z"/>
 </g>
</svg>