<svg width="512" height="512" xmlns="http://www.w3.org/2000/svg">

 <g>
  <title>background</title>
  <rect fill="none" id="canvas_background" height="402" width="582" y="-1" x="-1"/>
 </g>
 <g>
  <title>Layer 1</title>
  <path fill="#ffffff" id="svg_4" d="m69.12,4.267c-18.773,0 -35.84,6.827 -48.64,19.627c-13.653,13.653 -20.48,30.719 -20.48,48.639c0,18.773 7.68,35.84 20.48,48.64c12.8,12.8 30.72,20.48 47.787,19.627c0,0 0.853,0 1.707,0c17.067,0 33.28,-6.827 46.08,-19.627c12.8,-12.8 20.48,-29.867 20.48,-48.64c0.853,-17.92 -6.827,-34.987 -19.627,-47.787c-12.8,-13.653 -29.867,-20.479 -47.787,-20.479zm34.987,104.96c-9.387,9.387 -22.187,15.36 -35.84,14.507c-12.8,0 -26.453,-5.12 -35.84,-14.507c-10.24,-9.387 -15.36,-23.04 -15.36,-36.693s5.12,-26.453 15.36,-36.693c9.387,-9.387 22.187,-14.507 36.693,-14.507c12.8,0 25.6,5.12 34.987,14.507c10.24,10.24 15.36,23.04 15.36,36.693s-5.12,27.306 -15.36,36.693z"/>
  <path fill="#ffffff" id="svg_5" d="m102.4,157.867l-69.12,0c-13.653,0 -24.747,11.093 -24.747,25.6l0,298.667c0,13.653 11.947,25.6 25.6,25.6l68.267,0c13.653,0 25.6,-11.947 25.6,-24.747l0,-299.52c0,-13.654 -11.947,-25.6 -25.6,-25.6zm8.533,325.12c0,4.267 -4.267,7.68 -8.533,7.68l-68.267,0c-4.267,0 -8.533,-4.267 -8.533,-8.533l0,-298.667c0,-4.267 3.413,-8.533 7.68,-8.533l69.12,0c4.267,0 8.533,4.267 8.533,8.533l0,299.52z"/>
  <path fill="#ffffff" id="svg_6" d="m392.533,149.333l-17.92,0c-33.28,0 -64.853,14.507 -85.333,37.547l0,-11.947c0,-8.533 -8.533,-17.067 -17.067,-17.067l-85.333,0c-7.68,0 -17.067,6.827 -17.067,16.213l0,318.293c0,9.387 9.387,15.36 17.067,15.36l93.867,0c7.68,0 17.067,-5.973 17.067,-15.36l0,-184.32c0,-28.16 20.48,-50.347 46.933,-50.347c13.653,0 26.453,5.12 35.84,14.507c8.533,7.68 11.947,19.627 11.947,34.987l0,183.467c0,8.533 8.533,17.067 17.067,17.067l85.333,0c8.533,0 17.067,-8.533 17.067,-17.067l0,-220.16c-0.001,-68.266 -52.054,-121.173 -119.468,-121.173zm102.4,340.48l-0.853,0.853l-83.627,0l-0.853,-183.466c0,-20.48 -5.12,-35.84 -16.213,-46.933c-12.8,-12.8 -29.867,-19.627 -47.787,-19.627c-35.84,0.853 -64,29.867 -64,67.413l0,182.613l-93.867,0l0,-315.733l84.48,0l0.853,0.853l0,53.76l23.04,-23.04l0.853,-0.853c17.067,-23.893 46.933,-39.253 78.507,-39.253l17.92,0c57.173,0 101.547,46.08 101.547,104.107l0,219.306z"/>
 </g>
</svg>