<svg width="512" height="512" xmlns="http://www.w3.org/2000/svg">

 <g>
  <title>background</title>
  <rect fill="none" id="canvas_background" height="402" width="582" y="-1" x="-1"/>
 </g>
 <g>
  <title>Layer 1</title>
  <path fill="#ffffff" id="svg_3" d="m405.034,202.711l0,-53.679c0,-82.176 -66.857,-149.032 -149.034,-149.032s-149.033,66.856 -149.033,149.033l0,53.679l-54.652,0l0,309.288l407.369,0l0,-309.289l-54.65,0zm-149.034,-172.711c65.635,0 119.033,53.398 119.033,119.033l0,53.679l-30,0l0,-53.678c0.001,-49.094 -39.939,-89.034 -89.033,-89.034c-49.093,0 -89.033,39.94 -89.033,89.033l0,53.678l-30,0l0,-53.678l0,0c0,-65.635 53.398,-119.033 119.033,-119.033zm59.034,119.033l0,53.678l-118.067,0l0,-53.678c0,-32.551 26.483,-59.033 59.033,-59.033c32.552,0 59.034,26.482 59.034,59.033zm-232.719,332.967l0,-249.289l347.369,0l0,249.289l-347.369,0z"/>
  <path fill="#ffffff" id="svg_6" d="m306.464,331.587c0,-27.826 -22.638,-50.463 -50.464,-50.463s-50.464,22.638 -50.464,50.463c0,13.558 5.364,26.272 14.721,35.627l-14.126,66.374l99.738,0l-14.126,-66.374c9.356,-9.355 14.721,-22.069 14.721,-35.627zm-39.414,17.216l-8.703,5.606l10.466,49.178l-25.625,0l10.466,-49.178l-8.703,-5.606c-5.895,-3.797 -9.414,-10.233 -9.414,-17.216c-0.001,-11.284 9.179,-20.463 20.463,-20.463s20.464,9.18 20.464,20.463c0,6.983 -3.519,13.419 -9.414,17.216z"/>
 </g>
</svg>