<svg width="511" height="511.9999" xmlns="http://www.w3.org/2000/svg">

 <g>
  <title>background</title>
  <rect fill="none" id="canvas_background" height="477.085" width="477.085" y="-1" x="-1"/>
 </g>
 <g>
  <title>Layer 1</title>
  <path id="svg_1" fill-rule="nonzero" fill="#ffffff" d="m335.175781,190.992188c0,-73.796876 -60.039062,-133.835938 -133.835937,-133.835938c-73.800782,0 -133.839844,60.039062 -133.839844,133.835938c0,73.800781 60.039062,133.839843 133.839844,133.839843c73.796875,0 133.835937,-60.039062 133.835937,-133.839843zm-133.835937,118.839843c-65.527344,0 -118.839844,-53.3125 -118.839844,-118.839843c0,-65.523438 53.3125,-118.835938 118.839844,-118.835938c65.527344,0 118.835937,53.3125 118.835937,118.835938c0,65.527343 -53.308593,118.839843 -118.835937,118.839843zm0,0"/>
  <path id="svg_2" fill-rule="nonzero" fill="#ffffff" d="m294.546875,161.652344c-1.414063,-4.359375 -5.441406,-7.285156 -10.023437,-7.285156l-55.890626,0l-17.269531,-53.152344c-1.417969,-4.355469 -5.445312,-7.28125 -10.023437,-7.28125c-4.578125,0 -8.605469,2.925781 -10.023438,7.28125l-17.269531,53.15625l-55.890625,0c-4.582031,0 -8.609375,2.925781 -10.023438,7.28125c-1.414062,4.355468 0.125,9.089844 3.828126,11.78125l45.214843,32.851562l-17.269531,53.152344c-1.414062,4.355469 0.121094,9.09375 3.828125,11.785156c3.703125,2.691406 8.683594,2.691406 12.390625,0l45.214844,-32.851562l45.214844,32.851562c1.855468,1.347656 4.023437,2.019532 6.195312,2.019532c2.171875,0 4.34375,-0.671876 6.195312,-2.019532c3.707032,-2.691406 5.242188,-7.429687 3.828126,-11.785156l-17.273438,-53.152344l45.214844,-32.851562c3.707031,-2.691406 5.246094,-7.425782 3.832031,-11.78125zm-60.484375,34.402344c-3.703125,2.691406 -5.242188,7.425781 -3.828125,11.785156l14.027344,43.175781l-36.726563,-26.683594c-1.855468,-1.347656 -4.023437,-2.019531 -6.195312,-2.019531c-2.171875,0 -4.34375,0.671875 -6.195313,2.019531l-36.726562,26.683594l14.027343,-43.179687c1.414063,-4.355469 -0.125,-9.089844 -3.828124,-11.78125l-36.730469,-26.6875l45.402343,0c4.578126,0 8.605469,-2.925782 10.023438,-7.28125l14.027344,-43.179688l14.027344,43.179688c1.417968,4.355468 5.445312,7.28125 10.023437,7.28125l45.402344,0l-36.730469,26.6875zm0,0"/>
  <path id="svg_3" fill-rule="nonzero" fill="#ffffff" d="m400.640625,439.113281l-70.324219,-123.460937l12.320313,-3.953125c14.84375,-4.757813 24.640625,-18.953125 23.828125,-34.519531l-0.933594,-17.878907c-0.285156,-5.410156 1.730469,-10.730469 5.53125,-14.59375l12.558594,-12.761719c10.929687,-11.113281 13.007812,-28.234374 5.054687,-41.640624l-9.136719,-15.394532c-2.765624,-4.660156 -3.449218,-10.308594 -1.882812,-15.496094l5.1875,-17.136718c4.515625,-14.917969 -1.601562,-31.042969 -14.871094,-39.214844l-15.246094,-9.390625c-4.613281,-2.839844 -7.847656,-7.519531 -8.867187,-12.84375l-3.371094,-17.582031c-2.933593,-15.308594 -15.84375,-26.746094 -31.394531,-27.816406l-17.863281,-1.226563c-5.40625,-0.371094 -10.441407,-3.015625 -13.816407,-7.253906l-11.160156,-14.003907c-9.710937,-12.1875 -26.460937,-16.3125 -40.722656,-10.035156l-16.386719,7.214844c0,0 0,0 -0.003906,0c-4.957031,2.183594 -10.644531,2.183594 -15.605469,0l-16.386718,-7.214844c-14.265626,-6.277344 -31.011719,-2.152344 -40.726563,10.039063l-11.15625,14c-3.375,4.238281 -8.410156,6.882812 -13.816406,7.253906l-17.863281,1.226563c-15.550782,1.070312 -28.460938,12.507812 -31.394532,27.816406l-3.371094,17.582031c-1.023437,5.320313 -4.253906,10.003906 -8.867187,12.84375l-15.246094,9.386719c-13.269531,8.171875 -19.386719,24.300781 -14.871093,39.21875l5.183593,17.136718c1.570313,5.1875 0.886719,10.832032 -1.878906,15.492188l-9.136719,15.398438c-7.953125,13.402343 -5.875,30.527343 5.054688,41.636718l12.558594,12.765625c3.796874,3.863281 5.816406,9.179688 5.53125,14.589844l-0.933594,17.882813c-0.8125,15.5625 8.984375,29.757812 23.824218,34.519531l12.324219,3.949219l-70.324219,123.464843c-2.125,3.730469 -2.046875,8.316407 0.207032,11.972657c2.253906,3.65625 6.335937,5.796874 10.605468,5.5625l58.777344,-3.042969l27.363282,52.113281c1.996093,3.796875 5.902343,6.207031 10.195312,6.277344c0.066406,0 0.132812,0.003906 0.199219,0.003906c4.214843,0 8.113281,-2.257812 10.203125,-5.929688l71.566406,-125.648437c3.3125,1.027344 6.746094,1.5625 10.183594,1.5625c3.4375,0 6.867187,-0.535156 10.183594,-1.5625l71.566406,125.648437c2.089844,3.671876 5.984375,5.929688 10.199218,5.929688c0.066407,0 0.136719,0 0.203126,-0.003906c4.292968,-0.070313 8.199218,-2.476563 10.195312,-6.277344l27.359375,-52.113281l58.78125,3.042969c4.304687,0.226562 8.351563,-1.910157 10.601563,-5.5625c2.253906,-3.65625 2.335937,-8.242188 0.210937,-11.972657zm-291.136719,54.359375l-24.921875,-47.460937l14.714844,-25.828125c2.050781,-3.601563 0.796875,-8.179688 -2.804687,-10.230469c-3.59375,-2.046875 -8.175782,-0.792969 -10.226563,2.804687l-14.714844,25.832032l-53.53125,2.773437l67.585938,-118.652343c1.273437,1.425781 2.351562,3.039062 3.164062,4.804687l7.484375,16.269531c3.882813,8.441406 10.882813,14.699219 19.152344,17.804688l-11.71875,20.578125c-2.050781,3.597656 -0.792969,8.179687 2.804688,10.230469c1.171874,0.664062 2.449218,0.980468 3.707031,0.980468c2.605469,0 5.140625,-1.359375 6.523437,-3.789062l14.839844,-26.050782c0.609375,-0.074218 1.21875,-0.15625 1.828125,-0.265624l17.640625,-3.082032c5.332031,-0.933594 10.855469,0.429688 15.148438,3.734375l11.894531,9.160157l-68.570313,120.386718zm101.585938,-129.132812c-0.027344,0.015625 -0.050782,0.023437 -0.074219,0.039062c-0.039063,0.023438 -0.078125,0.050782 -0.117187,0.074219c-5.917969,3.363281 -13.199219,3.363281 -19.117188,0c-0.039062,-0.023437 -0.074219,-0.050781 -0.117188,-0.074219c-0.023437,-0.015625 -0.046874,-0.023437 -0.070312,-0.039062c-0.710938,-0.414063 -1.40625,-0.859375 -2.070312,-1.371094l-14.1875,-10.925781c-6.042969,-4.65625 -13.460938,-7.140625 -21,-7.140625c-1.960938,0 -3.929688,0.171875 -5.886719,0.511718l-17.640625,3.082032c-1.136719,0.199218 -2.273438,0.289062 -3.398438,0.285156c-0.09375,-0.003906 -0.183594,-0.007812 -0.273437,-0.007812c-7.324219,-0.128907 -14.105469,-4.414063 -17.253907,-11.261719l-7.484374,-16.265625c-3.199219,-6.957032 -8.648438,-12.609375 -15.355469,-16.109375c-0.015625,-0.007813 -0.027344,-0.019531 -0.042969,-0.027344c-0.042969,-0.023437 -0.085938,-0.042969 -0.125,-0.0625c-0.160156,-0.082031 -0.320312,-0.164063 -0.480469,-0.242187c-0.039062,-0.019532 -0.070312,-0.035157 -0.109375,-0.050782c-1.484375,-0.730468 -3.023437,-1.359375 -4.613281,-1.871094l-17.050781,-5.464843c-8.363282,-2.683594 -13.886719,-10.683594 -13.425782,-19.453125l0.933594,-17.882813c0.5,-9.601562 -3.078125,-19.039062 -9.820312,-25.890625l-12.554688,-12.765625c-6.160156,-6.261719 -7.332031,-15.910156 -2.851562,-23.464843l9.136718,-15.398438c4.90625,-8.269531 6.125,-18.289062 3.339844,-27.492188l-5.1875,-17.136718c-2.546875,-8.40625 0.902344,-17.496094 8.382813,-22.097656l15.246093,-9.390626c8.1875,-5.042968 13.921876,-13.347656 15.730469,-22.792968l3.371094,-17.582032c1.652344,-8.625 8.929687,-15.070312 17.691406,-15.675781l17.863281,-1.226562c9.589844,-0.660157 18.527344,-5.351563 24.519532,-12.871094l11.15625,-14c5.476562,-6.871094 14.914062,-9.195313 22.953125,-5.65625l16.382812,7.210937c8.800781,3.875 18.898438,3.875 27.695313,0l16.386718,-7.210937c8.042969,-3.539063 17.476563,-1.214844 22.949219,5.65625l11.160157,14.003906c5.988281,7.519531 14.929687,12.207031 24.519531,12.867188l17.863281,1.230469c8.761719,0.601562 16.039062,7.046874 17.691406,15.671874l3.371094,17.585938c1.8125,9.441406 7.546875,17.75 15.730469,22.789062l15.246093,9.390626c7.480469,4.605468 10.929688,13.691406 8.382813,22.097656l-5.1875,17.140625c-2.785156,9.199219 -1.566406,19.21875 3.339844,27.492187l9.136719,15.394532c4.480468,7.554687 3.3125,17.203124 -2.851563,23.464843l-12.554687,12.765625c-6.742188,6.851563 -10.320313,16.289063 -9.820313,25.894532l0.933594,17.878906c0.460937,8.769531 -5.0625,16.769531 -13.425781,19.453125l-17.050782,5.464843c-1.589844,0.511719 -3.128906,1.140626 -4.613281,1.867188c-0.039063,0.019531 -0.074219,0.035156 -0.109375,0.050781c-0.160156,0.082031 -0.324219,0.164063 -0.484375,0.246094c-0.039063,0.023437 -0.082031,0.039063 -0.121094,0.0625c-0.015625,0.007813 -0.027343,0.015625 -0.039062,0.023437c-6.710938,3.5 -12.160157,9.15625 -15.359375,16.113282l-7.484375,16.269531c-3.144531,6.839844 -9.917969,11.125 -17.238281,11.257813c-0.105469,0 -0.214844,0.003906 -0.320313,0.011718c-1.117187,0 -2.242187,-0.089844 -3.371094,-0.289062l-17.636719,-3.082032c-9.472656,-1.65625 -19.273437,0.761719 -26.890624,6.628907l-14.183594,10.925781c-0.660156,0.511719 -1.355469,0.957031 -2.0625,1.371094zm120.039062,74.25l-14.835937,-26.042969c-2.050781,-3.601563 -6.632813,-4.855469 -10.226563,-2.804687c-3.601562,2.050781 -4.855468,6.628906 -2.804687,10.230468l14.832031,26.039063l-24.917969,47.460937l-68.570312,-120.386718l11.890625,-9.160157c4.292968,-3.304687 9.816406,-4.667969 15.152344,-3.734375l17.636718,3.082032c0.609375,0.109374 1.222656,0.191406 1.832032,0.265624l14.832031,26.042969c1.382812,2.425781 3.917969,3.789063 6.523437,3.789063c1.257813,0 2.535156,-0.316406 3.707032,-0.984375c3.597656,-2.050781 4.851562,-6.628907 2.804687,-10.230469l-11.714844,-20.566406c8.269531,-3.109375 15.269531,-9.363282 19.152344,-17.804688l7.484375,-16.269531c0.8125,-1.765625 1.890625,-3.378906 3.164062,-4.804687l67.585938,118.652343l-53.527344,-2.773437zm0,0"/>
 </g>
</svg>