<svg width="512" height="512" xmlns="http://www.w3.org/2000/svg">

 <g>
  <title>background</title>
  <rect fill="none" id="canvas_background" height="402" width="582" y="-1" x="-1"/>
 </g>
 <g>
  <title>Layer 1</title>
  <path fill="#00005f" id="svg_3" d="m290.359,432l-109.024,-168.533l0,-135.467c0,-5.891 -4.776,-10.667 -10.667,-10.667l-53.333,0c-5.891,0 -10.667,4.776 -10.667,10.667l0,135.765l-99.402,168.982c-4.755,8.082 -7.263,17.288 -7.263,26.666c-0.001,29.042 23.543,52.586 52.585,52.587l194.24,0c9.983,-0.003 19.752,-2.887 28.136,-8.306c24.049,-15.547 30.942,-47.645 15.395,-71.694zm-43.531,58.667l-194.24,0c-5.591,0.009 -11.083,-1.482 -15.902,-4.318c-14.876,-8.754 -19.839,-27.91 -11.085,-42.786l100.929,-171.488c0.964,-1.639 1.472,-3.506 1.472,-5.408l0,-128l32,0l0,128c-0.001,2.055 0.592,4.066 1.707,5.792l110.72,171.125c3.194,4.935 4.894,10.687 4.896,16.566c0.005,16.848 -13.648,30.511 -30.497,30.517z"/>
  <path fill="#00005f" id="svg_6" d="m153.655,310.112l-18.389,-10.805l-90.571,153.952c-0.966,1.642 -1.475,3.514 -1.473,5.419c0.006,5.891 4.787,10.662 10.678,10.655l74.101,0l0,-21.333l-55.466,0l81.12,-137.888z"/>
  <path fill="#00005f" id="svg_9" d="m486.252,245.333l-166.25,0c-23.564,0 -42.667,19.103 -42.667,42.667l0,170.667c0.035,29.441 23.893,53.298 53.333,53.333l96,0c29.441,-0.035 53.298,-23.893 53.333,-53.333l0,-144.918l24.469,-24.459c4.817,-4.826 7.523,-11.365 7.527,-18.183c0.009,-14.226 -11.518,-25.766 -25.745,-25.774zm3.126,28.875l-27.584,27.584c-2,2 -3.125,4.713 -3.125,7.541l0,149.333c0,17.673 -14.327,32 -32,32l-96,0c-17.673,0 -32,-14.327 -32,-32l0,-170.666c0,-11.782 9.551,-21.333 21.333,-21.333l166.251,0c1.174,-0.001 2.301,0.465 3.131,1.296c1.722,1.726 1.72,4.522 -0.006,6.245z"/>
  <path fill="#00005f" id="svg_12" d="m416.002,309.333l0,138.667l-32,0l0,21.333l42.667,0c5.891,0 10.667,-4.776 10.667,-10.667l0,-149.333l-21.334,0z"/>
  <path fill="#00005f" id="svg_15" d="m298.668,154.496l0,-143.829c0,-5.891 -4.775,-10.667 -10.666,-10.667l-74.667,0c-5.891,0 -10.667,4.776 -10.667,10.667l0,146.859c-13.018,4.008 -25.541,9.472 -37.333,16.288l10.667,18.464c12.532,-7.236 25.988,-12.737 40,-16.352c4.712,-1.217 8.004,-5.469 8,-10.336l0,-144.257l53.333,0l0,141.771c0.002,5.12 3.642,9.517 8.672,10.475c37.402,7.15 71.033,27.393 94.859,57.099l16.629,-13.355c-25.101,-31.281 -59.851,-53.372 -98.827,-62.827z"/>
  <path fill="#00005f" id="svg_18" d="m453.335,149.333c-20.619,0 -37.333,16.715 -37.333,37.333c0,20.619 16.715,37.333 37.333,37.333c20.619,0 37.333,-16.715 37.333,-37.333c0,-20.618 -16.714,-37.333 -37.333,-37.333zm0,53.334c-8.837,0 -16,-7.163 -16,-16s7.163,-16 16,-16s16,7.163 16,16s-7.163,16 -16,16z"/>
  <path fill="#00005f" id="svg_21" d="m416.002,74.667c-17.673,0 -32,14.327 -32,32c0,17.673 14.327,32 32,32s32,-14.327 32,-32c0,-17.673 -14.327,-32 -32,-32zm0,42.666c-5.891,0 -10.667,-4.776 -10.667,-10.667s4.776,-10.666 10.667,-10.666c5.891,0 10.667,4.776 10.667,10.667s-4.776,10.666 -10.667,10.666z"/>
  <path fill="#00005f" id="svg_24" d="m37.335,85.333c-20.619,0 -37.333,16.715 -37.333,37.333c0,20.619 16.714,37.334 37.333,37.334c20.619,0 37.333,-16.715 37.333,-37.333c0,-20.619 -16.714,-37.334 -37.333,-37.334zm0,53.334c-8.837,0 -16,-7.163 -16,-16s7.163,-16 16,-16c8.837,0 16,7.163 16,16s-7.163,16 -16,16z"/>
  <path fill="#00005f" id="svg_27" d="m85.335,10.667c-17.673,0 -32,14.327 -32,32c0,17.673 14.327,32 32,32c17.673,0 32,-14.327 32,-32c0,-17.673 -14.327,-32 -32,-32zm0,42.666c-5.891,0 -10.667,-4.776 -10.667,-10.667c0,-5.89 4.776,-10.666 10.667,-10.666c5.891,0 10.667,4.776 10.667,10.667c0,5.891 -4.776,10.666 -10.667,10.666z"/>
  <rect fill="#00005f" id="svg_30" height="21.333" width="32" y="309.333" x="320.002"/>
  <rect fill="#00005f" id="svg_33" height="21.333" width="21.333" y="352" x="320.002"/>
  <rect fill="#00005f" id="svg_36" height="21.333" width="32" y="394.667" x="320.002"/>
  <rect fill="#00005f" id="svg_39" height="21.333" width="21.333" y="437.333" x="320.002"/>
  <rect fill="#00005f" id="svg_42" height="21.333" width="21.333" y="192" x="21.335"/>
  <rect fill="#00005f" id="svg_45" height="21.333" width="21.333" y="245.333" x="53.335"/>
  <rect fill="#00005f" id="svg_48" height="21.333" width="21.333" y="288" x="234.668"/>
  <rect fill="#00005f" id="svg_51" height="21.333" width="21.333" y="245.333" x="213.335"/>
  <rect fill="#00005f" id="svg_54" height="21.333" width="21.333" y="202.667" x="202.668"/>
  <rect fill="#00005f" id="svg_57" height="21.333" width="21.333" y="437.333" x="213.335"/>
  <rect fill="#00005f" id="svg_60" height="21.333" width="21.333" y="394.667" x="181.335"/>
 </g>
</svg>