<svg width="511.98685" height="511" xmlns="http://www.w3.org/2000/svg">

 <g>
  <title>background</title>
  <rect fill="none" id="canvas_background" height="402" width="582" y="-1" x="-1"/>
 </g>
 <g>
  <title>Layer 1</title>
  <path id="svg_1" fill="#ffffff" d="m510.65234,185.90234c-3.35156,-10.36718 -12.54687,-17.73046 -23.42578,-18.71093l-147.77343,-13.41797l-58.4336,-136.76953c-4.30859,-10.02344 -14.12109,-16.51172 -25.02344,-16.51172s-20.71484,6.48828 -25.02343,16.53515l-58.4336,136.7461l-147.79687,13.41797c-10.85938,1.0039 -20.03125,8.34375 -23.40235,18.71093c-3.37109,10.36719 -0.25781,21.73829 7.95704,28.90625l111.69921,97.96094l-32.9375,145.08985c-2.41015,10.66796 1.73047,21.69531 10.58204,28.09375c4.75781,3.4375 10.32421,5.1875 15.9375,5.1875c4.83984,0 9.64062,-1.30469 13.94921,-3.88282l127.46875,-76.18359l127.42188,76.18359c9.32422,5.60938 21.07812,5.09766 29.91016,-1.30469c8.85546,-6.41796 12.99218,-17.44921 10.58203,-28.09375l-32.9375,-145.08984l111.69922,-97.94141c8.21484,-7.1875 11.35156,-18.53906 7.98046,-28.92578zm0,0"/>
 </g>
</svg>