<svg width="512" height="512" xmlns="http://www.w3.org/2000/svg">

 <g>
  <title>background</title>
  <rect fill="none" id="canvas_background" height="402" width="582" y="-1" x="-1"/>
 </g>
 <g>
  <title>Layer 1</title>
  <path fill="#ffffff" id="svg_2" d="m391,271.005l0,-80.23l120.967,-53.473l-255.973,-137.22l-255.485,137.204l120.491,53.473l0,80.246l270,0zm-30,-30l-210,0l0,-55.109l105,-52.5l105,52.5l0,55.109zm-104.994,-206.877l187.626,100.581l-62.59,27.667l-125.042,-62.522l-125.022,62.511l-62.287,-27.642l187.315,-100.595z"/>
  <path fill="#ffffff" id="svg_3" d="m467,301.005c-8.218,0 -88.918,15.158 -212,14.994c-124.778,-0.166 -202.041,-14.994 -210,-14.994c-13.991,0 -26.29,9.186 -34.629,25.865c-6.688,13.375 -10.371,30.825 -10.371,49.135s3.683,35.76 10.371,49.135c8.34,16.679 20.638,25.865 34.629,25.865c5.29,0 68.342,-11.25 166,-14.226l0,75.139l45,-45l45,45l0,-75.139c100.996,3.078 158.863,14.226 166,14.226c13.991,0 26.29,-9.186 34.629,-25.865c6.688,-13.375 10.371,-30.825 10.371,-49.135s-3.683,-35.76 -10.371,-49.135c-8.339,-16.679 -20.638,-25.865 -34.629,-25.865zm-429.797,110.718c-4.578,-9.155 -7.203,-22.174 -7.203,-35.718s2.625,-26.563 7.203,-35.718c3.334,-6.667 6.37,-8.755 7.447,-9.187c3.33,0.472 6.652,6.199 8.146,9.187c4.579,9.155 7.204,22.174 7.204,35.718s-2.625,26.563 -7.203,35.718c-1.505,3.01 -4.821,8.716 -8.148,9.187c-1.079,-0.434 -4.113,-2.523 -7.446,-9.187zm46.319,4.215c4.203,-11.751 6.478,-25.573 6.478,-39.933c0,-14.351 -2.272,-28.163 -6.47,-39.909c42.381,4.884 84.907,7.952 127.47,9.224l0,61.444c-42.696,1.275 -85.378,4.35 -127.478,9.174zm172.478,8.554l-15,15l0,-93.567c5,0.05 25,0.05 30,0l0,93.567l-15,-15zm45,-79.173c42.563,-1.272 85.088,-4.34 127.47,-9.224c-4.198,11.746 -6.47,25.559 -6.47,39.909c0,14.36 2.275,28.182 6.478,39.933c-42.1,-4.824 -84.782,-7.899 -127.478,-9.174l0,-61.444zm173.797,66.404c-3.332,6.664 -6.367,8.753 -7.446,9.187c-3.327,-0.471 -6.644,-6.178 -8.148,-9.187c-4.578,-9.156 -7.203,-22.174 -7.203,-35.718s2.625,-26.563 7.203,-35.718c1.496,-2.992 4.817,-8.716 8.146,-9.187c1.077,0.432 4.113,2.52 7.447,9.187c4.578,9.156 7.203,22.174 7.203,35.718s-2.624,26.563 -7.202,35.718z"/>
 </g>
</svg>