<svg width="427.614" height="427.614" xmlns="http://www.w3.org/2000/svg">

 <g>
  <title>background</title>
  <rect fill="none" id="canvas_background" height="402" width="582" y="-1" x="-1"/>
 </g>
 <g>
  <title>Layer 1</title>
  <path fill="#00005f" id="svg_3" d="m333.363,28.977c-37.8,-38.3 -99.5,-38.7 -137.8,-0.8c-0.3,0.3 -0.5,0.5 -0.8,0.8l-81,81c-1.6,0.9 -2.9,2.2 -3.8,3.8l-81.5,81.4c-38,38.1 -37.9,99.8 0.1,137.8c38.3,37.9 99.9,37.9 138.3,0l0.1,-0.1l81.4,-81.7c0.6,-0.4 1.1,-0.8 1.6,-1.3s0.9,-1 1.3,-1.6l81.3,-81.5c38.3,-37.8 38.6,-99.5 0.8,-137.8zm-180.6,289.8c-30.5,30.1 -79.6,30.2 -110.1,0c-30.1,-30.3 -30.1,-79.2 0,-109.5l76.4,-76.4l109.6,109.8l-75.9,76.1zm165.7,-166.3l-75.7,75.9l-109.6,-109.6l75.8,-75.8c30.2,-30.2 79.3,-30.2 109.5,0s30.2,79.3 0,109.5z"/>
  <path fill="#00005f" id="svg_6" d="m240.863,73.777c-3.8,-4 -10.1,-4.1 -14.1,-0.1l-34.6,34c-4,3.9 -4,10.2 -0.2,14.1c3.8,3.9 10.2,4 14.1,0.2l0.1,-0.1l34.5,-34c4,-3.9 4,-10.2 0.2,-14.1z"/>
  <path fill="#00005f" id="svg_9" d="m399.263,262.077c0,0 0,0 -0.1,-0.1c-37.3,-37.9 -98.3,-38.3 -136.2,-0.9c-0.3,0.3 -0.6,0.6 -0.9,0.9c-37.9,37.9 -37.9,99.3 -0.1,137.2c37.8,37.9 99.3,37.9 137.2,0.1c37.9,-37.9 37.9,-99.3 0.1,-137.2zm-145.6,68.5c0,-42.5 34.5,-77 77,-77c16.9,0 33.4,5.6 46.8,15.9l-107.9,108c-10.3,-13.5 -15.9,-30 -15.9,-46.9zm131.4,54.4c-27.3,27.3 -70.7,30.1 -101.3,6.6l107.9,-107.9c23.6,30.6 20.8,74 -6.6,101.3z"/>
 </g>
</svg>