<svg width="420" height="420" xmlns="http://www.w3.org/2000/svg">

 <g>
  <title>background</title>
  <rect fill="none" id="canvas_background" height="402" width="582" y="-1" x="-1"/>
 </g>
 <g>
  <title>Layer 1</title>
  <path fill="#ffffff" id="svg_3" d="m279.517,45.129l-12.306,-16.155l12.306,-16.153c2.673,-3.505 1.999,-8.513 -1.506,-11.186c-1.396,-1.064 -3.103,-1.639 -4.858,-1.635l-63,0c-4.442,-0.025 -8.078,3.529 -8.153,7.971l0,71.029l16,0l0,-21l55.153,0c4.428,-0.01 8.01,-3.608 8,-8.036c-0.004,-1.747 -0.579,-3.445 -1.636,-4.835z"/>
  <path fill="#ffffff" id="svg_6" d="m26.862,252c-6.517,-0.034 -11.828,5.221 -11.862,11.737c0,0.052 0,0.104 0,0.156l0,156.107l101,0l0,-168l-89.138,0zm26.138,124c0,4.418 -3.582,8 -8,8s-8,-3.582 -8,-8l0,-17.191c0,-4.418 3.582,-8 8,-8s8,3.582 8,8l0,17.191zm0,-66.958c0,4.418 -3.582,8 -8,8s-8,-3.582 -8,-8l0,-17.192c0,-4.418 3.582,-8 8,-8s8,3.582 8,8l0,17.192zm41,66.958c0,4.418 -3.582,8 -8,8s-8,-3.582 -8,-8l0,-17.191c0,-4.418 3.582,-8 8,-8s8,3.582 8,8l0,17.191zm0,-66.958c0,4.418 -3.582,8 -8,8s-8,-3.582 -8,-8l0,-17.192c0,-4.418 3.582,-8 8,-8s8,3.582 8,8l0,17.192z"/>
  <path fill="#ffffff" id="svg_9" d="m208.714,140.5l-76.714,65.254l0,214.246l35,0l0,-83.311c-0.106,-4.141 3.165,-7.583 7.306,-7.69c0.135,-0.003 0.27,-0.003 0.405,0.001l68.768,0c4.055,-0.102 7.425,3.102 7.527,7.156c0.004,0.178 0.003,0.355 -0.006,0.533l0,83.311l34,0l0,-214.32l-76.286,-65.18zm34.765,143.5l-69.22,0c-4.418,0 -8,-3.582 -8,-8s3.582,-8 8,-8l69.22,0c4.418,0 8,3.582 8,8s-3.582,8 -8,8z"/>
  <path fill="#ffffff" id="svg_12" d="m393.294,252c-0.052,0 -0.104,0 -0.156,0l-92.138,0l0,168l104,0l0,-156.107c0.052,-6.517 -5.19,-11.841 -11.706,-11.893zm-51.294,124c0,4.418 -3.582,8 -8,8s-8,-3.582 -8,-8l0,-17.191c0,-4.418 3.582,-8 8,-8s8,3.582 8,8l0,17.191zm0,-66.958c0,4.418 -3.582,8 -8,8s-8,-3.582 -8,-8l0,-17.192c0,-4.418 3.582,-8 8,-8s8,3.582 8,8l0,17.192zm40,66.958c0,4.418 -3.582,8 -8,8s-8,-3.582 -8,-8l0,-17.191c0,-4.418 3.582,-8 8,-8s8,3.582 8,8l0,17.191zm0,-66.958c0,4.418 -3.582,8 -8,8s-8,-3.582 -8,-8l0,-17.192c0,-4.418 3.582,-8 8,-8s8,3.582 8,8l0,17.192z"/>
  <path fill="#ffffff" id="svg_15" d="m209.1,89.836l-114.483,98.01l14.468,16.835l94.821,-80.795c2.995,-2.552 7.401,-2.548 10.391,0.011l94.427,80.817l14.8,-16.914l-114.424,-97.964z"/>
  <rect fill="#ffffff" id="svg_18" height="75" width="52" y="345" x="183"/>
 </g>
</svg>