<svg width="512" height="512" xmlns="http://www.w3.org/2000/svg">

 <g>
  <title>background</title>
  <rect fill="none" id="canvas_background" height="402" width="582" y="-1" x="-1"/>
 </g>
 <g>
  <title>Layer 1</title>
  <path fill="#ffffff" id="svg_3" d="m354.957,0c-70.317,0 -127.525,55.283 -127.525,123.234l0,116.653l-197.915,0l0,272.113l323.93,0l0,-272.113l-39.026,0l0,-114.483c0,-19.975 18.185,-36.225 40.536,-36.225c22.353,0 40.537,16.25 40.537,36.225l0,81.608l86.988,0.023l0,-83.801c-0.001,-67.951 -57.209,-123.234 -127.525,-123.234zm-31.51,269.887l0,212.113l-263.93,0l0,-212.113l263.93,0zm31.509,-210.709c-38.893,0 -70.536,29.708 -70.536,66.225l0,114.483l-26.989,0l0,-116.652c0,-51.409 43.75,-93.234 97.525,-93.234c53.775,0 97.525,41.825 97.525,93.234l0,53.793l-26.988,-0.008l0,-51.616c0,-36.517 -31.642,-66.225 -70.537,-66.225z"/>
  <path fill="#ffffff" id="svg_6" d="m191.481,303.999c-28.172,0 -51.09,22.92 -51.09,51.092c0,11.243 3.626,21.963 10.321,30.793l0.08,54.003l81.429,0l0.035,-54.01c6.691,-8.828 10.316,-19.546 10.316,-30.787c0,-28.171 -22.919,-51.091 -51.091,-51.091zm15.063,65.845l-4.281,4.37l-0.023,35.674l-21.493,0l-0.053,-35.678l-4.275,-4.365c-3.887,-3.969 -6.028,-9.208 -6.028,-14.753c0,-11.629 9.461,-21.091 21.091,-21.091c11.629,-0.001 21.09,9.46 21.09,21.09c0,5.546 -2.141,10.785 -6.028,14.753z"/>
 </g>
</svg>